#!OML:ASF F:\VICON\USERDATA\INSTALL\rory3\rory3.ASF
:FULLY-SPECIFIED
:DEGREES
800
root 3.06398 16.7378 0.100887 16.1692 4.55163 10.8418
lowerback -6.87558 2.09552 1.09012
upperback -2.36451 2.90048 -7.18003
thorax 1.83494 1.46605 -7.90016
lowerneck -2.28011 14.6238 5.32657
upperneck 47.7191 24.3594 -1.62549
head 20.1636 10.6846 2.40884
rclavicle -8.44835e-015 -1.78906e-014
rhumerus -37.1195 3.34464 -92.9316
rradius 42.9113
rwrist -38.9101
rhand -10.0089 -49.6215
rfingers 7.12502
rthumb 15.9751 -78.9827
lclavicle -8.44835e-015 -1.78906e-014
lhumerus -27.778 -20.4204 82.4571
lradius 41.3558
lwrist 73.6294
lhand -38.1051 -13.095
lfingers 7.12502
lthumb -11.1407 16.5893
rfemur -51.2763 24.1565 -6.85737
rtibia 73.9891
rfoot 3.95864 9.66362
rtoes -42.9228
lfemur -32.5515 -6.65752 -36.4796
ltibia 38.1976
lfoot -17.4829 10.4203
ltoes 6.9686
801
root 3.06452 16.7362 0.105903 16.1645 4.5933 10.7097
lowerback -6.92747 2.10637 1.24728
upperback -2.35671 2.90559 -7.14863
thorax 1.87864 1.46985 -7.95571
lowerneck -2.33324 14.622 5.24173
upperneck 47.7319 24.3219 -1.52539
head 20.1381 10.6661 2.46083
rclavicle 1.22253e-014 -1.90833e-014
rhumerus -37.137 3.28709 -92.9193
rradius 42.9137
rwrist -38.8345
rhand -9.99601 -49.5911
rfingers 7.12502
rthumb 15.9875 -78.9513
lclavicle 1.22253e-014 -1.90833e-014
lhumerus -27.7901 -20.4305 82.4651
lradius 41.3472
lwrist 73.6737
lhand -38.4228 -12.8017
lfingers 7.12502
lthumb -11.447 16.8658
rfemur -51.2433 24.1781 -6.7099
rtibia 73.9552
rfoot 4.42671 9.01992
rtoes -40.4693
lfemur -32.4887 -6.59421 -36.3782
ltibia 38.1356
lfoot -17.3733 10.602
ltoes 5.7803
802
root 3.06688 16.7463 0.108102 16.1566 4.59174 10.7583
lowerback -6.89697 2.11106 1.21615
upperback -2.35502 2.91388 -7.16717
thorax 1.8641 1.47384 -7.95775
lowerneck -2.35257 14.6152 5.22266
upperneck 47.7471 24.3013 -1.49032
head 20.1389 10.6578 2.47773
rclavicle -2.18166e-014 2.3059e-014
rhumerus -37.1063 3.24149 -92.8878
rradius 42.8717
rwrist -38.8004
rhand -10.0515 -49.6417
rfingers 7.12502
rthumb 15.934 -79.0063
lclavicle -2.18166e-014 2.3059e-014
lhumerus -27.7912 -20.4743 82.4773
lradius 41.3077
lwrist 73.7001
lhand -38.5192 -12.7339
lfingers 7.12502
lthumb -11.54 16.9284
rfemur -51.3548 24.1704 -6.8069
rtibia 73.9854
rfoot 4.86408 9.13436
rtoes -40.1148
lfemur -32.3354 -6.57664 -36.4552
ltibia 37.9136
lfoot -17.2597 10.629
ltoes 5.68496
803
root 3.07144 16.7654 0.10843 16.1758 4.55738 10.9217
lowerback -6.83446 2.11394 1.06476
upperback -2.39453 2.9254 -7.21905
thorax 1.78521 1.47724 -7.92712
lowerneck -2.28543 14.6127 5.24087
upperneck 47.7576 24.2977 -1.48573
head 20.1312 10.6643 2.46996
rclavicle 2.61899e-014 -5.52621e-014
rhumerus -37.1606 3.17435 -92.8584
rradius 42.8848
rwrist -38.7597
rhand -9.91745 -49.8871
rfingers 7.12502
rthumb 16.0631 -79.2413
lclavicle 2.61899e-014 -5.52621e-014
lhumerus -27.8174 -20.5003 82.5114
lradius 41.2259
lwrist 73.5872
lhand -38.3585 -12.8539
lfingers 7.12502
lthumb -11.3851 16.817
rfemur -51.6572 24.203 -7.15087
rtibia 74.0495
rfoot 5.90906 8.94025
rtoes -37.221
lfemur -32.1699 -6.60204 -36.6361
ltibia 37.6327
lfoot -17.1332 10.5975
ltoes 5.58055
804
root 3.0734 16.7748 0.11188 16.1515 4.60754 10.9247
lowerback -6.77427 2.09465 1.09456
upperback -2.431 2.89416 -7.22725
thorax 1.71091 1.45923 -7.95883
lowerneck -2.25219 14.6026 5.16922
upperneck 47.7698 24.2483 -1.39295
head 20.0867 10.6479 2.50431
rclavicle -2.50469e-014 -2.90226e-014
rhumerus -37.2809 3.12189 -92.8703
rradius 42.9313
rwrist -38.7306
rhand -9.62795 -50.2679
rfingers 7.12502
rthumb 16.3419 -79.5994
lclavicle -2.50469e-014 -2.90226e-014
lhumerus -27.8274 -20.4783 82.5008
lradius 41.0333
lwrist 73.465
lhand -37.8782 -13.2211
lfingers 7.12502
lthumb -10.9218 16.4749
rfemur -51.727 24.2451 -7.19675
rtibia 74.0788
rfoot 6.3657 8.55285
rtoes -34.6428
lfemur -31.9983 -6.66638 -36.6229
ltibia 37.3984
lfoot -16.9876 10.5869
ltoes 5.42978
805
root 3.07075 16.7751 0.117245 16.0762 4.72198 10.8864
lowerback -6.75267 2.02704 1.13604
upperback -2.37798 2.80201 -7.19651
thorax 1.74086 1.41425 -7.95811
lowerneck -2.39376 14.6143 5.01157
upperneck 47.8548 24.2311 -1.235
head 20.1079 10.6215 2.60971
rclavicle 1.15295e-014 1.07344e-014
rhumerus -37.2548 3.22929 -92.9258
rradius 42.9156
rwrist -38.7464
rhand -9.46636 -50.6221
rfingers 7.12502
rthumb 16.4975 -79.9407
lclavicle 1.15295e-014 1.07344e-014
lhumerus -27.8035 -20.4022 82.4384
lradius 40.9623
lwrist 73.4788
lhand -37.8243 -13.4077
lfingers 7.12502
lthumb -10.8698 16.2909
rfemur -51.5605 24.2332 -7.03618
rtibia 74.0828
rfoot 6.34373 8.45885
rtoes -34.4154
lfemur -31.8278 -6.72684 -36.5485
ltibia 37.2886
lfoot -16.9444 10.552
ltoes 5.67968
806
root 3.07052 16.7798 0.122428 16.0106 4.8002 10.9112
lowerback -6.74894 1.96798 1.11635
upperback -2.30839 2.72702 -7.17765
thorax 1.79837 1.37888 -7.93225
lowerneck -2.51323 14.6285 4.8918
upperneck 47.938 24.2366 -1.12534
head 20.1452 10.605 2.69232
rclavicle -2.95692e-014 6.0033e-014
rhumerus -37.1929 3.34643 -92.9569
rradius 42.9081
rwrist -38.7539
rhand -9.42692 -50.7921
rfingers 7.12502
rthumb 16.5354 -80.1076
lclavicle -2.95692e-014 6.0033e-014
lhumerus -27.8899 -20.3827 82.4086
lradius 41.1751
lwrist 73.6519
lhand -38.0588 -13.3192
lfingers 7.12502
lthumb -11.0959 16.3674
rfemur -51.3827 24.2023 -6.97411
rtibia 74.043
rfoot 6.38744 8.42992
rtoes -34.0899
lfemur -31.764 -6.79676 -36.5409
ltibia 37.3372
lfoot -17.1019 10.4338
ltoes 6.77641
